<svg width="14" height="17" viewBox="0 0 14 17" fill="none" xmlns="http://www.w3.org/2000/svg">
<path d="M13.075 12.4083L12 11.3333V7.16665C12 4.60831 10.6333 2.46665 8.24998 1.89998V1.33331C8.24998 0.641646 7.69165 0.083313 6.99998 0.083313C6.30832 0.083313 5.74998 0.641646 5.74998 1.33331V1.89998C3.35832 2.46665 1.99998 4.59998 1.99998 7.16665V11.3333L0.924982 12.4083C0.399982 12.9333 0.766648 13.8333 1.50832 13.8333H12.4833C13.2333 13.8333 13.6 12.9333 13.075 12.4083ZM10.3333 12.1666H3.66665V7.16665C3.66665 5.09998 4.92498 3.41665 6.99998 3.41665C9.07498 3.41665 10.3333 5.09998 10.3333 7.16665V12.1666ZM6.99998 16.3333C7.91665 16.3333 8.66665 15.5833 8.66665 14.6666H5.33331C5.33331 15.5833 6.07498 16.3333 6.99998 16.3333Z" fill="#718096"/>
</svg>
