<svg width="20" height="14" viewBox="0 0 20 14" fill="none" xmlns="http://www.w3.org/2000/svg">
<path d="M16.125 5.36665C15.5583 2.49165 13.0333 0.333313 10 0.333313C7.59167 0.333313 5.5 1.69998 4.45833 3.69998C1.95 3.96665 0 6.09165 0 8.66665C0 11.425 2.24167 13.6666 5 13.6666H15.8333C18.1333 13.6666 20 11.8 20 9.49998C20 7.29998 18.2917 5.51665 16.125 5.36665ZM15.8333 12H5C3.15833 12 1.66667 10.5083 1.66667 8.66665C1.66667 6.82498 3.15833 5.33331 5 5.33331H5.59167C6.14167 3.40831 7.9 1.99998 10 1.99998C12.5333 1.99998 14.5833 4.04998 14.5833 6.58331V6.99998H15.8333C17.2167 6.99998 18.3333 8.11665 18.3333 9.49998C18.3333 10.8833 17.2167 12 15.8333 12Z" fill="#718096"/>
</svg>
