<svg width="15" height="15" viewBox="0 0 15 15" fill="none" xmlns="http://www.w3.org/2000/svg">
<path d="M1.33341 13H8.00008C8.36675 13 8.66675 13.3 8.66675 13.6667C8.66675 14.0333 8.36675 14.3333 8.00008 14.3333H1.33341C0.966748 14.3333 0.666748 14.0333 0.666748 13.6667C0.666748 13.3 0.966748 13 1.33341 13ZM3.49341 4.38L5.38008 2.49334L13.8667 10.98C14.3867 11.5 14.3867 12.3467 13.8667 12.8667C13.3467 13.3867 12.5001 13.3867 11.9801 12.8667L3.49341 4.38ZM9.15341 0.606669L11.0401 2.49334C11.5601 3.01334 11.5601 3.86 11.0401 4.38L10.0934 5.32667L6.32675 1.55334L7.26675 0.613336C7.78675 0.0866694 8.63341 0.0866694 9.15341 0.606669ZM2.55341 5.32L6.32675 9.09334L5.38675 10.0333C4.86675 10.5533 4.02008 10.5533 3.50008 10.0333L1.61341 8.14667C1.09341 7.62667 1.09341 6.78 1.61341 6.26L2.55341 5.32Z"/>
</svg>
