<svg width="128" height="46" viewBox="0 0 128 46" fill="none" xmlns="http://www.w3.org/2000/svg">
<path d="M64.0248 39.4398H72.8343V30.2461L76.1693 25.5833L83.5808 39.4398H92.8611L81.463 17.0926L91.6139 0.896359H82.0687L74.8271 13.8723L77.8939 13.9162L68.2646 28.4434L72.032 18.5459L70.1816 18.5675L72.8101 0.896359H64.0248V39.4398Z" fill="#B41313"/>
<path fill-rule="evenodd" clip-rule="evenodd" d="M35.5034 4.77081C37.8902 1.80366 41.5712 0 46.3509 0C51.1361 0 54.7574 1.79998 57.0415 4.84754C59.1834 7.7053 59.8389 11.2434 59.8389 14.3417H52.3973C52.3973 12.062 51.89 10.2219 51.0087 9.04602C50.2697 8.05996 49.0074 7.17087 46.3509 7.17087C43.6891 7.17087 42.2539 8.08378 41.385 9.16398C40.4059 10.3812 39.8395 12.2165 39.8395 14.3417V25.9944C39.8395 28.1131 40.4015 29.791 41.3206 30.8703C42.1404 31.833 43.5741 32.7171 46.3509 32.7171C49.1285 32.7171 50.3833 31.8519 51.0695 30.9873C51.8904 29.9528 52.3973 28.2734 52.3973 25.9944L59.8389 25.9944C59.8389 29.0935 59.183 32.5682 56.9808 35.3432C54.6438 38.2881 51.015 39.888 46.3509 39.888C41.686 39.888 38.0036 38.2795 35.5678 35.419C33.2311 32.675 32.3979 29.1988 32.3979 25.9944V14.3418C32.3979 11.1438 33.2268 7.60096 35.5034 4.77081Z" fill="#B41313"/>
<path fill-rule="evenodd" clip-rule="evenodd" d="M99.3725 0.896359H120.767V32.2689H127.279L121.697 45.7143H117.977V39.4398H116.581V35.8543C116.581 39.4398 116.581 39.4398 116.581 39.4398H97.047L93.3262 32.2689C95.311 29.8144 96.969 26.1273 97.9332 21.4817C99.0272 16.2106 99.3725 10.2017 99.3725 4.48179V0.896359ZM102.16 32.2689C103.585 29.372 104.555 26.1403 105.23 22.888C106.218 18.1293 106.686 12.0839 106.814 7.17087H113.326V32.2689H102.16Z" fill="#B41313"/>
<path fill-rule="evenodd" clip-rule="evenodd" d="M11.9334 0H19.375L32.3979 38.5434H24.4612L22.0383 31.3725H9.97976L7.74751 38.5434L0 38.4022L11.9334 0ZM12.2295 24.2017H19.6155L15.7857 12.8669L12.2295 24.2017Z" fill="#B41313"/>
</svg>
