<svg width="18" height="18" viewBox="0 0 18 18" fill="none" xmlns="http://www.w3.org/2000/svg">
<path d="M2.75008 8.16665C3.44044 8.16665 4.00008 7.60701 4.00008 6.91665C4.00008 6.2263 3.44044 5.66665 2.75008 5.66665C2.05973 5.66665 1.50008 6.2263 1.50008 6.91665C1.50008 7.60701 2.05973 8.16665 2.75008 8.16665Z" fill="#00B84D"/>
<path d="M17.4751 6.64165C17.4751 3.38332 14.8167 0.75832 11.5501 0.80832C8.35842 0.85832 5.72508 3.61665 5.81675 6.79999C5.89175 9.61665 7.96675 11.9333 10.6751 12.3833V15.6667H4.00008V13.1667H4.41675C4.65008 13.1667 4.83341 12.9833 4.83341 12.75V9.83332C4.83341 9.37499 4.45842 8.99999 4.00008 8.99999H1.50008C1.04175 8.99999 0.666748 9.37499 0.666748 9.83332V12.75C0.666748 12.9833 0.850081 13.1667 1.08341 13.1667H1.50008V16.5C1.50008 16.9583 1.87508 17.3333 2.33341 17.3333H14.0001C14.4584 17.3333 14.8334 16.9583 14.8334 16.5C14.8334 16.0417 14.4584 15.6667 14.0001 15.6667H12.3334V12.4333C15.2251 12.0917 17.4751 9.63332 17.4751 6.64165Z" fill="#00B84D"/>
</svg>
