<svg width="20" height="16" viewBox="0 0 20 16" fill="none" xmlns="http://www.w3.org/2000/svg">
<path fill-rule="evenodd" clip-rule="evenodd" d="M0.833496 3C0.833496 1.61929 1.95278 0.5 3.3335 0.5H16.6668C18.0475 0.5 19.1668 1.61929 19.1668 3V13C19.1668 14.3807 18.0475 15.5 16.6668 15.5H3.3335C1.95278 15.5 0.833496 14.3807 0.833496 13V3ZM3.3335 2.16667C2.87326 2.16667 2.50016 2.53976 2.50016 3V5.5H17.5002V3C17.5002 2.53976 17.1271 2.16667 16.6668 2.16667H3.3335ZM17.5002 7.16667H2.50016V9.66667H17.5002V7.16667ZM17.5002 11.3333H2.50016V13C2.50016 13.4602 2.87326 13.8333 3.3335 13.8333H16.6668C17.1271 13.8333 17.5002 13.4602 17.5002 13V11.3333Z" fill="#A0AEC0"/>
</svg>
